<?xml version="1.0" encoding="UTF-8" standalone="no"?>
<!DOCTYPE svg PUBLIC "-//W3C//DTD SVG 1.1//EN"
 "http://www.w3.org/Graphics/SVG/1.1/DTD/svg11.dtd">
<!-- Generated by graphviz version 2.38.0 (20140413.2041)
 -->
<!-- Title: G Pages: 1 -->
<svg width="562pt" height="1461pt"
 viewBox="0.00 0.00 561.78 1460.84" xmlns="http://www.w3.org/2000/svg" xmlns:xlink="http://www.w3.org/1999/xlink">
<g id="graph0" class="graph" transform="scale(1 1) rotate(0) translate(4 1456.84)">
<title>G</title>
<polygon fill="white" stroke="none" points="-4,4 -4,-1456.84 557.78,-1456.84 557.78,4 -4,4"/>
<g id="clust1" class="cluster"><title>cluster_Global</title>
<path fill="none" stroke="gray" d="M208.584,-76.8354C208.584,-76.8354 533.78,-76.8354 533.78,-76.8354 539.78,-76.8354 545.78,-82.8354 545.78,-88.8354 545.78,-88.8354 545.78,-1432.84 545.78,-1432.84 545.78,-1438.84 539.78,-1444.84 533.78,-1444.84 533.78,-1444.84 208.584,-1444.84 208.584,-1444.84 202.584,-1444.84 196.584,-1438.84 196.584,-1432.84 196.584,-1432.84 196.584,-88.8354 196.584,-88.8354 196.584,-82.8354 202.584,-76.8354 208.584,-76.8354"/>
<text text-anchor="middle" x="371.182" y="-1432.04" font-family="Times New Roman,serif" font-size="11.00" fill="gray">Global</text>
</g>
<!-- \\Empleados -->
<g id="node1" class="node"><title>\\Empleados</title>
<polygon fill="none" stroke="black" points="493.78,-1416.84 416.78,-1416.84 416.78,-1380.84 493.78,-1380.84 493.78,-1416.84"/>
<text text-anchor="middle" x="455.28" y="-1396.04" font-family="Courier,monospace" font-size="11.00">Empleados</text>
</g>
<!-- \\Secure_area -->
<g id="node22" class="node"><title>\\Secure_area</title>
<polygon fill="none" stroke="black" points="295.584,-1146.84 204.584,-1146.84 204.584,-1110.84 295.584,-1110.84 295.584,-1146.84"/>
<text text-anchor="middle" x="250.084" y="-1126.04" font-family="Courier,monospace" font-size="11.00">Secure_area</text>
</g>
<!-- \\Empleados&#45;&gt;\\Secure_area -->
<g id="edge1" class="edge"><title>\\Empleados&#45;&gt;\\Secure_area</title>
<path fill="none" stroke="black" d="M416.677,-1392.87C401.666,-1388.94 385.067,-1382.47 372.78,-1371.84 304.821,-1313.04 270.624,-1207.23 257.567,-1156.91"/>
<polygon fill="none" stroke="black" points="260.922,-1155.9 255.098,-1147.05 254.132,-1157.6 260.922,-1155.9"/>
</g>
<!-- \\Usuario_model -->
<g id="node2" class="node"><title>\\Usuario_model</title>
<polygon fill="none" stroke="black" points="507.28,-876.835 403.28,-876.835 403.28,-840.835 507.28,-840.835 507.28,-876.835"/>
<text text-anchor="middle" x="455.28" y="-856.035" font-family="Courier,monospace" font-size="11.00">Usuario_model</text>
</g>
<!-- \\CI_Model -->
<g id="node27" class="node"><title>\\CI_Model</title>
<ellipse fill="none" stroke="black" cx="250.084" cy="-50.8354" rx="50.8918" ry="18"/>
<text text-anchor="middle" x="250.084" y="-47.1354" font-family="Times New Roman,serif" font-size="14.00" fill="gray">\CI_Model</text>
</g>
<!-- \\Usuario_model&#45;&gt;\\CI_Model -->
<g id="edge2" class="edge"><title>\\Usuario_model&#45;&gt;\\CI_Model</title>
<path fill="none" stroke="black" d="M403.064,-851.62C391.495,-847.601 380.396,-841.395 372.78,-831.835 267.207,-699.325 399.814,-210.301 300.78,-72.8354 299.756,-71.4143 298.619,-70.0836 297.392,-68.8378"/>
<polygon fill="none" stroke="black" points="299.526,-66.063 289.516,-62.59 295.175,-71.5469 299.526,-66.063"/>
</g>
<!-- \\Permisos -->
<g id="node3" class="node"><title>\\Permisos</title>
<polygon fill="none" stroke="black" points="490.78,-1362.84 419.78,-1362.84 419.78,-1326.84 490.78,-1326.84 490.78,-1362.84"/>
<text text-anchor="middle" x="455.28" y="-1342.04" font-family="Courier,monospace" font-size="11.00">Permisos</text>
</g>
<!-- \\Permisos&#45;&gt;\\Secure_area -->
<g id="edge3" class="edge"><title>\\Permisos&#45;&gt;\\Secure_area</title>
<path fill="none" stroke="black" d="M419.673,-1338.84C404.151,-1334.85 386.328,-1328.34 372.78,-1317.84 316.783,-1274.44 279.009,-1197.55 261.771,-1156.49"/>
<polygon fill="none" stroke="black" points="264.956,-1155.03 257.927,-1147.11 258.478,-1157.69 264.956,-1155.03"/>
</g>
<!-- \\Picadas -->
<g id="node4" class="node"><title>\\Picadas</title>
<polygon fill="none" stroke="black" points="487.28,-1308.84 423.28,-1308.84 423.28,-1272.84 487.28,-1272.84 487.28,-1308.84"/>
<text text-anchor="middle" x="455.28" y="-1288.04" font-family="Courier,monospace" font-size="11.00">Picadas</text>
</g>
<!-- \\Picadas&#45;&gt;\\Secure_area -->
<g id="edge4" class="edge"><title>\\Picadas&#45;&gt;\\Secure_area</title>
<path fill="none" stroke="black" d="M423.181,-1284.56C407.228,-1280.38 388.005,-1273.78 372.78,-1263.84 328.295,-1234.78 289.682,-1185.55 268.461,-1155.24"/>
<polygon fill="none" stroke="black" points="271.246,-1153.12 262.696,-1146.86 265.479,-1157.08 271.246,-1153.12"/>
</g>
<!-- \\Seccion -->
<g id="node5" class="node"><title>\\Seccion</title>
<polygon fill="none" stroke="black" points="487.28,-228.835 423.28,-228.835 423.28,-192.835 487.28,-192.835 487.28,-228.835"/>
<text text-anchor="middle" x="455.28" y="-208.035" font-family="Courier,monospace" font-size="11.00">Seccion</text>
</g>
<!-- \\CI_Controller -->
<g id="node28" class="node"><title>\\CI_Controller</title>
<ellipse fill="none" stroke="black" cx="63.6943" cy="-566.835" rx="63.8893" ry="18"/>
<text text-anchor="middle" x="63.6943" y="-563.135" font-family="Times New Roman,serif" font-size="14.00" fill="gray">\CI_Controller</text>
</g>
<!-- \\Seccion&#45;&gt;\\CI_Controller -->
<g id="edge5" class="edge"><title>\\Seccion&#45;&gt;\\CI_Controller</title>
<path fill="none" stroke="black" d="M422.966,-206.664C406.37,-203.045 386.615,-196.315 372.78,-183.835 301.346,-119.401 342.801,24.1904 251.084,-4.83535"/>
</g>
<!-- \\Usuarios -->
<g id="node6" class="node"><title>\\Usuarios</title>
<polygon fill="none" stroke="black" points="490.78,-1254.84 419.78,-1254.84 419.78,-1218.84 490.78,-1218.84 490.78,-1254.84"/>
<text text-anchor="middle" x="455.28" y="-1234.04" font-family="Courier,monospace" font-size="11.00">Usuarios</text>
</g>
<!-- \\Usuarios&#45;&gt;\\Secure_area -->
<g id="edge6" class="edge"><title>\\Usuarios&#45;&gt;\\Secure_area</title>
<path fill="none" stroke="black" d="M419.773,-1227.64C404.949,-1223.12 387.652,-1217.09 372.78,-1209.84 340.271,-1193.99 306.246,-1170.69 282.466,-1153.14"/>
<polygon fill="none" stroke="black" points="284.297,-1150.14 274.19,-1146.96 280.109,-1155.75 284.297,-1150.14"/>
</g>
<!-- \\Empleado_horario_model -->
<g id="node7" class="node"><title>\\Empleado_horario_model</title>
<polygon fill="none" stroke="black" points="537.78,-822.835 372.78,-822.835 372.78,-786.835 537.78,-786.835 537.78,-822.835"/>
<text text-anchor="middle" x="455.28" y="-802.035" font-family="Courier,monospace" font-size="11.00">Empleado_horario_model</text>
</g>
<!-- \\Empleado_horario_model&#45;&gt;\\CI_Model -->
<g id="edge7" class="edge"><title>\\Empleado_horario_model&#45;&gt;\\CI_Model</title>
<path fill="none" stroke="black" d="M382.063,-786.748C378.624,-784.16 375.485,-781.206 372.78,-777.835 175.633,-532.204 485.805,-327.723 300.78,-72.8354 299.751,-71.418 298.61,-70.0905 297.379,-68.8473"/>
<polygon fill="none" stroke="black" points="299.504,-66.0658 289.488,-62.61 295.163,-71.5572 299.504,-66.0658"/>
</g>
<!-- \\Horarios -->
<g id="node8" class="node"><title>\\Horarios</title>
<polygon fill="none" stroke="black" points="490.78,-1200.84 419.78,-1200.84 419.78,-1164.84 490.78,-1164.84 490.78,-1200.84"/>
<text text-anchor="middle" x="455.28" y="-1180.04" font-family="Courier,monospace" font-size="11.00">Horarios</text>
</g>
<!-- \\Horarios&#45;&gt;\\Secure_area -->
<g id="edge8" class="edge"><title>\\Horarios&#45;&gt;\\Secure_area</title>
<path fill="none" stroke="black" d="M419.349,-1173.55C388.13,-1165.26 341.874,-1152.96 305.757,-1143.36"/>
<polygon fill="none" stroke="black" points="306.424,-1139.92 295.86,-1140.73 304.626,-1146.69 306.424,-1139.92"/>
</g>
<!-- \\Picada_model -->
<g id="node9" class="node"><title>\\Picada_model</title>
<polygon fill="none" stroke="black" points="504.28,-768.835 406.28,-768.835 406.28,-732.835 504.28,-732.835 504.28,-768.835"/>
<text text-anchor="middle" x="455.28" y="-748.035" font-family="Courier,monospace" font-size="11.00">Picada_model</text>
</g>
<!-- \\Picada_model&#45;&gt;\\CI_Model -->
<g id="edge9" class="edge"><title>\\Picada_model&#45;&gt;\\CI_Model</title>
<path fill="none" stroke="black" d="M406.138,-744.52C393.52,-740.551 381.127,-734.146 372.78,-723.835 189.622,-497.581 472.77,-307.691 300.78,-72.8354 299.745,-71.4223 298.599,-70.0985 297.363,-68.8585"/>
<polygon fill="none" stroke="black" points="299.478,-66.0692 289.456,-62.6335 295.148,-71.5693 299.478,-66.0692"/>
</g>
<!-- \\Horario_model -->
<g id="node10" class="node"><title>\\Horario_model</title>
<polygon fill="none" stroke="black" points="507.28,-714.835 403.28,-714.835 403.28,-678.835 507.28,-678.835 507.28,-714.835"/>
<text text-anchor="middle" x="455.28" y="-694.035" font-family="Courier,monospace" font-size="11.00">Horario_model</text>
</g>
<!-- \\Horario_model&#45;&gt;\\CI_Model -->
<g id="edge10" class="edge"><title>\\Horario_model&#45;&gt;\\CI_Model</title>
<path fill="none" stroke="black" d="M403.232,-689.485C391.659,-685.468 380.517,-679.297 372.78,-669.835 203.6,-462.944 459.746,-287.674 300.78,-72.8354 299.738,-71.4274 298.586,-70.108 297.345,-68.8717"/>
<polygon fill="none" stroke="black" points="299.449,-66.0734 289.418,-62.6614 295.132,-71.5837 299.449,-66.0734"/>
</g>
<!-- \\No_access -->
<g id="node11" class="node"><title>\\No_access</title>
<polygon fill="none" stroke="black" points="493.78,-174.835 416.78,-174.835 416.78,-138.835 493.78,-138.835 493.78,-174.835"/>
<text text-anchor="middle" x="455.28" y="-154.035" font-family="Courier,monospace" font-size="11.00">No_access</text>
</g>
<!-- \\No_access&#45;&gt;\\CI_Controller -->
<g id="edge11" class="edge"><title>\\No_access&#45;&gt;\\CI_Controller</title>
<path fill="none" stroke="black" d="M416.524,-149.814C401.831,-145.744 385.505,-139.45 372.78,-129.835 310.915,-83.0957 325.007,18.559 251.084,-4.83535"/>
</g>
<!-- \\Permiso_picada_model -->
<g id="node12" class="node"><title>\\Permiso_picada_model</title>
<polygon fill="none" stroke="black" points="531.28,-660.835 379.28,-660.835 379.28,-624.835 531.28,-624.835 531.28,-660.835"/>
<text text-anchor="middle" x="455.28" y="-640.035" font-family="Courier,monospace" font-size="11.00">Permiso_picada_model</text>
</g>
<!-- \\Permiso_picada_model&#45;&gt;\\CI_Model -->
<g id="edge12" class="edge"><title>\\Permiso_picada_model&#45;&gt;\\CI_Model</title>
<path fill="none" stroke="black" d="M382.181,-624.651C378.713,-622.087 375.536,-619.165 372.78,-615.835 217.563,-428.289 446.736,-267.675 300.78,-72.8354 299.73,-71.4336 298.571,-70.1195 297.324,-68.8876"/>
<polygon fill="none" stroke="black" points="299.413,-66.0786 289.373,-62.6949 295.112,-71.6011 299.413,-66.0786"/>
</g>
<!-- \\Cargo_model -->
<g id="node13" class="node"><title>\\Cargo_model</title>
<polygon fill="none" stroke="black" points="500.78,-606.835 409.78,-606.835 409.78,-570.835 500.78,-570.835 500.78,-606.835"/>
<text text-anchor="middle" x="455.28" y="-586.035" font-family="Courier,monospace" font-size="11.00">Cargo_model</text>
</g>
<!-- \\Cargo_model&#45;&gt;\\CI_Model -->
<g id="edge13" class="edge"><title>\\Cargo_model&#45;&gt;\\CI_Model</title>
<path fill="none" stroke="black" d="M409.776,-583.34C396.031,-579.465 382.078,-572.907 372.78,-561.835 231.506,-393.611 433.744,-247.702 300.78,-72.8354 299.72,-71.4412 298.552,-70.1335 297.298,-68.9072"/>
<polygon fill="none" stroke="black" points="299.37,-66.0853 289.319,-62.7361 295.088,-71.6225 299.37,-66.0853"/>
</g>
<!-- \\Cargos -->
<g id="node14" class="node"><title>\\Cargos</title>
<polygon fill="none" stroke="black" points="483.78,-1146.84 426.78,-1146.84 426.78,-1110.84 483.78,-1110.84 483.78,-1146.84"/>
<text text-anchor="middle" x="455.28" y="-1126.04" font-family="Courier,monospace" font-size="11.00">Cargos</text>
</g>
<!-- \\Cargos&#45;&gt;\\Secure_area -->
<g id="edge14" class="edge"><title>\\Cargos&#45;&gt;\\Secure_area</title>
<path fill="none" stroke="black" d="M426.452,-1128.84C395.522,-1128.84 344.8,-1128.84 305.842,-1128.84"/>
<polygon fill="none" stroke="black" points="305.702,-1125.34 295.702,-1128.84 305.702,-1132.34 305.702,-1125.34"/>
</g>
<!-- \\Seccion_model -->
<g id="node15" class="node"><title>\\Seccion_model</title>
<polygon fill="none" stroke="black" points="507.28,-552.835 403.28,-552.835 403.28,-516.835 507.28,-516.835 507.28,-552.835"/>
<text text-anchor="middle" x="455.28" y="-532.035" font-family="Courier,monospace" font-size="11.00">Seccion_model</text>
</g>
<!-- \\Seccion_model&#45;&gt;\\CI_Model -->
<g id="edge15" class="edge"><title>\\Seccion_model&#45;&gt;\\CI_Model</title>
<path fill="none" stroke="black" d="M403.094,-527.098C391.667,-523.084 380.626,-517.011 372.78,-507.835 245.422,-358.9 420.778,-227.761 300.78,-72.8354 299.667,-71.3994 298.442,-70.055 297.125,-68.7966"/>
<polygon fill="none" stroke="black" points="298.853,-65.7159 288.762,-62.4889 294.638,-71.3046 298.853,-65.7159"/>
</g>
<!-- \\Departamento -->
<g id="node16" class="node"><title>\\Departamento</title>
<polygon fill="none" stroke="black" points="504.28,-1092.84 406.28,-1092.84 406.28,-1056.84 504.28,-1056.84 504.28,-1092.84"/>
<text text-anchor="middle" x="455.28" y="-1072.04" font-family="Courier,monospace" font-size="11.00">Departamento</text>
</g>
<!-- \\Departamento&#45;&gt;\\Secure_area -->
<g id="edge16" class="edge"><title>\\Departamento&#45;&gt;\\Secure_area</title>
<path fill="none" stroke="black" d="M406.125,-1087.63C375.944,-1095.65 336.967,-1106.01 305.645,-1114.34"/>
<polygon fill="none" stroke="black" points="304.53,-1111.01 295.765,-1116.96 306.328,-1117.78 304.53,-1111.01"/>
</g>
<!-- \\Departamento_model -->
<g id="node17" class="node"><title>\\Departamento_model</title>
<polygon fill="none" stroke="black" points="524.28,-498.835 386.28,-498.835 386.28,-462.835 524.28,-462.835 524.28,-498.835"/>
<text text-anchor="middle" x="455.28" y="-478.035" font-family="Courier,monospace" font-size="11.00">Departamento_model</text>
</g>
<!-- \\Departamento_model&#45;&gt;\\CI_Model -->
<g id="edge17" class="edge"><title>\\Departamento_model&#45;&gt;\\CI_Model</title>
<path fill="none" stroke="black" d="M386.129,-464.955C381.161,-461.879 376.608,-458.21 372.78,-453.835 259.299,-324.144 407.849,-207.868 300.78,-72.8354 299.651,-71.4122 298.411,-70.0786 297.084,-68.8292"/>
<polygon fill="none" stroke="black" points="298.783,-65.7307 288.675,-62.5568 294.598,-71.3415 298.783,-65.7307"/>
</g>
<!-- \\Empresa_model -->
<g id="node18" class="node"><title>\\Empresa_model</title>
<polygon fill="none" stroke="black" points="507.28,-444.835 403.28,-444.835 403.28,-408.835 507.28,-408.835 507.28,-444.835"/>
<text text-anchor="middle" x="455.28" y="-424.035" font-family="Courier,monospace" font-size="11.00">Empresa_model</text>
</g>
<!-- \\Empresa_model&#45;&gt;\\CI_Model -->
<g id="edge18" class="edge"><title>\\Empresa_model&#45;&gt;\\CI_Model</title>
<path fill="none" stroke="black" d="M403.006,-418.654C391.719,-414.648 380.766,-408.691 372.78,-399.835 273.118,-289.321 394.974,-188.044 300.78,-72.8354 299.526,-71.3014 298.143,-69.871 296.661,-68.5376"/>
<polygon fill="none" stroke="black" points="298.708,-65.6989 288.562,-62.6476 294.591,-71.36 298.708,-65.6989"/>
</g>
<!-- \\Empresa -->
<g id="node19" class="node"><title>\\Empresa</title>
<polygon fill="none" stroke="black" points="487.28,-1038.84 423.28,-1038.84 423.28,-1002.84 487.28,-1002.84 487.28,-1038.84"/>
<text text-anchor="middle" x="455.28" y="-1018.04" font-family="Courier,monospace" font-size="11.00">Empresa</text>
</g>
<!-- \\Empresa&#45;&gt;\\Secure_area -->
<g id="edge19" class="edge"><title>\\Empresa&#45;&gt;\\Secure_area</title>
<path fill="none" stroke="black" d="M422.938,-1029.08C407.455,-1033.68 388.724,-1040.06 372.78,-1047.84 340.271,-1063.68 306.246,-1086.99 282.466,-1104.53"/>
<polygon fill="none" stroke="black" points="280.109,-1101.93 274.19,-1110.71 284.297,-1107.53 280.109,-1101.93"/>
</g>
<!-- \\Empleado_model -->
<g id="node20" class="node"><title>\\Empleado_model</title>
<polygon fill="none" stroke="black" points="510.78,-390.835 399.78,-390.835 399.78,-354.835 510.78,-354.835 510.78,-390.835"/>
<text text-anchor="middle" x="455.28" y="-370.035" font-family="Courier,monospace" font-size="11.00">Empleado_model</text>
</g>
<!-- \\Empleado_model&#45;&gt;\\CI_Model -->
<g id="edge20" class="edge"><title>\\Empleado_model&#45;&gt;\\CI_Model</title>
<path fill="none" stroke="black" d="M399.464,-362.996C389.524,-359.058 380.027,-353.547 372.78,-345.835 286.845,-254.397 382.187,-168.327 300.78,-72.8354 299.494,-71.3275 298.085,-69.919 296.582,-68.6037"/>
<polygon fill="none" stroke="black" points="298.583,-65.7322 288.409,-62.7752 294.519,-71.4313 298.583,-65.7322"/>
</g>
<!-- \\Login -->
<g id="node21" class="node"><title>\\Login</title>
<polygon fill="none" stroke="black" points="482.28,-120.835 428.28,-120.835 428.28,-84.8354 482.28,-84.8354 482.28,-120.835"/>
<text text-anchor="middle" x="455.28" y="-100.035" font-family="Courier,monospace" font-size="11.00">Login</text>
</g>
<!-- \\Login&#45;&gt;\\CI_Controller -->
<g id="edge21" class="edge"><title>\\Login&#45;&gt;\\CI_Controller</title>
<path fill="none" stroke="black" d="M437.308,-84.6059C403.272,-50.362 323.711,18.149 251.084,-4.83535"/>
<path fill="none" stroke="black" d="M249.084,-4.83535C225.426,-12.3224 213.149,-5.35948 196.584,-23.8354 126.212,-102.326 80.2696,-438.896 67.9961,-538.783"/>
<polygon fill="none" stroke="black" points="64.5186,-538.387 66.789,-548.735 71.4677,-539.229 64.5186,-538.387"/>
</g>
<!-- \\Secure_area&#45;&gt;\\CI_Controller -->
<g id="edge22" class="edge"><title>\\Secure_area&#45;&gt;\\CI_Controller</title>
<path fill="none" stroke="black" d="M243.158,-1110.77C216.337,-1029.03 106.22,-693.4 73.7471,-594.427"/>
<polygon fill="none" stroke="black" points="77.0416,-593.241 70.5985,-584.83 70.3904,-595.423 77.0416,-593.241"/>
</g>
<!-- \\Reportes -->
<g id="node23" class="node"><title>\\Reportes</title>
<polygon fill="none" stroke="black" points="490.78,-984.835 419.78,-984.835 419.78,-948.835 490.78,-948.835 490.78,-984.835"/>
<text text-anchor="middle" x="455.28" y="-964.035" font-family="Courier,monospace" font-size="11.00">Reportes</text>
</g>
<!-- \\Reportes&#45;&gt;\\Secure_area -->
<g id="edge23" class="edge"><title>\\Reportes&#45;&gt;\\Secure_area</title>
<path fill="none" stroke="black" d="M419.6,-974.076C404.414,-978.285 386.882,-984.625 372.78,-993.835 328.295,-1022.89 289.682,-1072.13 268.461,-1102.43"/>
<polygon fill="none" stroke="black" points="265.479,-1100.59 262.696,-1110.81 271.246,-1104.55 265.479,-1100.59"/>
</g>
<!-- \\Permiso_model -->
<g id="node24" class="node"><title>\\Permiso_model</title>
<polygon fill="none" stroke="black" points="507.28,-336.835 403.28,-336.835 403.28,-300.835 507.28,-300.835 507.28,-336.835"/>
<text text-anchor="middle" x="455.28" y="-316.035" font-family="Courier,monospace" font-size="11.00">Permiso_model</text>
</g>
<!-- \\Permiso_model&#45;&gt;\\CI_Model -->
<g id="edge24" class="edge"><title>\\Permiso_model&#45;&gt;\\CI_Model</title>
<path fill="none" stroke="black" d="M403.201,-309.917C392.042,-305.934 381.097,-300.171 372.78,-291.835 300.413,-219.304 369.551,-148.785 300.78,-72.8354 299.426,-71.3404 297.952,-69.9416 296.387,-68.6335"/>
<polygon fill="none" stroke="black" points="298.164,-65.6077 287.942,-62.8221 294.196,-71.3743 298.164,-65.6077"/>
</g>
<!-- \\Home -->
<g id="node25" class="node"><title>\\Home</title>
<polygon fill="none" stroke="black" points="482.28,-930.835 428.28,-930.835 428.28,-894.835 482.28,-894.835 482.28,-930.835"/>
<text text-anchor="middle" x="455.28" y="-910.035" font-family="Courier,monospace" font-size="11.00">Home</text>
</g>
<!-- \\Home&#45;&gt;\\Secure_area -->
<g id="edge25" class="edge"><title>\\Home&#45;&gt;\\Secure_area</title>
<path fill="none" stroke="black" d="M427.907,-916.886C410.803,-920.573 388.803,-927.417 372.78,-939.835 316.783,-983.233 279.009,-1060.12 261.771,-1101.18"/>
<polygon fill="none" stroke="black" points="258.478,-1099.98 257.927,-1110.56 264.956,-1102.64 258.478,-1099.98"/>
</g>
<!-- \\Module_model -->
<g id="node26" class="node"><title>\\Module_model</title>
<polygon fill="none" stroke="black" points="504.28,-282.835 406.28,-282.835 406.28,-246.835 504.28,-246.835 504.28,-282.835"/>
<text text-anchor="middle" x="455.28" y="-262.035" font-family="Courier,monospace" font-size="11.00">Module_model</text>
</g>
<!-- \\Module_model&#45;&gt;\\CI_Model -->
<g id="edge26" class="edge"><title>\\Module_model&#45;&gt;\\CI_Model</title>
<path fill="none" stroke="black" d="M405.871,-256.077C393.983,-252.082 382.029,-246.274 372.78,-237.835 313.674,-183.907 357.206,-129.562 300.78,-72.8354 299.357,-71.4055 297.826,-70.061 296.214,-68.7976"/>
<polygon fill="none" stroke="black" points="297.888,-65.7094 287.61,-63.1369 294.04,-71.5572 297.888,-65.7094"/>
</g>
</g>
</svg>
